<svg xmlns="http://www.w3.org/2000/svg" viewBox="0 0 1922.26 188.19"><defs><style>.cls-1{fill:#a4a6a4;stroke:#6e6e6e;stroke-miterlimit:10;opacity:0.42;}</style></defs><g id="Layer_2" data-name="Layer 2"><g id="Layer_1-2" data-name="Layer 1"><path class="cls-1" d="M212.92,95.66l12.52-54.89a4.74,4.74,0,0,1,3.39-3.58c2-.52,5-.55,9.12,1.47L363.89,66.27s5.71.61,0,11.06S328.72,113,328.72,113s-8.07,9-30.41,6.18Z"/><path class="cls-1" d="M369,79.55a12.18,12.18,0,0,1,12.35-4.2l65.21,15.76s6.42,1.82,6.65,6.1a17.32,17.32,0,0,0,1,5.3c4.66,12.21,20,55,15.18,76.05,0,0-31,9-65.91,7.74a25.06,25.06,0,0,0-4.58.2c-5.61.81-28,1.4-94.9-20.77,0,0-4.75-7.61,11.41-19.49Z"/><path class="cls-1" d="M273.88,121.64s9.86-3.39,35.65,4.28c14.25,4.24-21.87,38.49-21.87,38.49l-20.43-2.85S255.82,161.08,273.88,121.64Z"/><path class="cls-1" d="M166.2,63.55a3.24,3.24,0,0,1,.81-4.76A77.45,77.45,0,0,1,206.8,47.5c12.43,0,2.43,29.4.35,35.15a3.35,3.35,0,0,1-1.22,1.63c-3.51,2.58-16.87,11.24-23.85-.66Z"/><path class="cls-1" d="M446.87,81.29l-36.12-9S393.42,66,405.05,48.5l7.19-11.18a13.64,13.64,0,0,0,1.43-2.66c.32-.89,2-2.32,10.28.53l10.62,3.64a18,18,0,0,0,6.63,1c10.11-.43,40-1.31,47.49,3,9,5.23-30.41,38.49-30.41,38.49S455.15,83.36,446.87,81.29Z"/><path class="cls-1" d="M468.67,101.37c-3-5.6-7.39-18.79,10.52-27.84,0,0,15.68-6.54,43.25,12,0,0,7.12,6.18,3.32,11.41l-52.62,6.76A4.42,4.42,0,0,1,468.67,101.37Z"/><path class="cls-1" d="M482,108.86s58.93-9,68-3.81c0,0,17.58,4.76,20.44,10,0,0-3.81,45.62-39,61.3,0,0-44.68,10-49.43,3.33l-11.7-67.49Z"/><path class="cls-1" d="M631.68,62.44a7.49,7.49,0,0,1-.55,11.41L589.45,106s-9.21,9-23.29-1.91L497.72,64.32a5.78,5.78,0,0,1-2.35-7c2.57-6.53,17.47-17.48,48-27.87C578.52,17.47,616.93,48.64,631.68,62.44Z"/><path class="cls-1" d="M403.49,34.83l-10.32,22s-10,12-32.32,3L243,29.92s-7.6-6.66,17.58-22.34C283.63-6.77,385.08,26,402.14,31.69A2.29,2.29,0,0,1,403.49,34.83Z"/><path class="cls-1" d="M261.05,121.71l-48.13-19.46S190.24,91.8,178.83,108c-7,9.94-13.31,17.54-17.12,21.92a4.47,4.47,0,0,0,1.34,6.92c14.4,7.36,56.42,27.2,90.87,27.24C259.15,164,261.05,121.71,261.05,121.71Z"/><path class="cls-1" d="M401,24.69,341.84,8.53s-2.37-2.45,1.9-4.55S397,4,397,4,405.57,10,401,24.69Z"/><path class="cls-1" d="M432.35,31.37,407.46,8.09a.18.18,0,0,0-.07-.05c-.89-.55-18.82-12.35,123.66-5.31,5.36.27,14.72,20.2-1.49,24-26.7,6.31-83.86,5.9-94.33,5.77A4.33,4.33,0,0,1,432.35,31.37Z"/><path class="cls-1" d="M225.73,24.69s-4.27-20,0-21.65S250.92.88,249.5,3s-14.74,23.55-16.16,21.65c-.7-.93-2.91,1.85-4.61,2.07S225.73,24.69,225.73,24.69Z"/><path class="cls-1" d="M217.8,3c2.85,5.45,2.85,29.46,2.85,29.46L212.92,39,149.37,52.73c-28.52,8.08-32.8-10-32.8-10L109.73,7A3.32,3.32,0,0,1,113,3Z"/><path class="cls-1" d="M31.91,111.06a7.44,7.44,0,0,1,4.18-8.66l91.45-40.77S148,52.92,155.81,73a10.29,10.29,0,0,0,4.64,5.36c7,3.82,21.25,14.11,8,29.48l-66.17,64s-22.7,16.46-25.07,7.52-32.79-43.16-32.79-43.16S36.07,127.15,31.91,111.06Z"/><path class="cls-1" d="M113.27,174.89l34.94-32a3,3,0,0,0,.34-.37c.68-.88,3.9-4.41,9.68-.88a3.65,3.65,0,0,0,.34.18l62.54,26.6a2.87,2.87,0,0,1-.59,5.47c-22.06,4.16-78.38,13.49-106.06,5.95A2.87,2.87,0,0,1,113.27,174.89Z"/><path class="cls-1" d="M109.67,59.75l-6.89-45.36S101.37.85,85.68,4,7.74,24.69,7.74,24.69-1.33,21.9.83,63.22L14.51,93a6.76,6.76,0,0,0,8.78,3.4Z"/><path class="cls-1" d="M64,174.78,10.18,101.16s-4.32-5-4.8,0-2.88,71.9,0,77.85c3.64,7.52,43.69,1.7,56.27.52A3.05,3.05,0,0,0,64,174.78Z"/><path class="cls-1" d="M231.6,182.89a.94.94,0,0,1-.88-.57c-.83-2-3.17-8.41.48-11.14,0,0,20.9-2.92,29.94-2.29h.09c1.44-.06,39.22-1.64,64.74,10.06a.94.94,0,0,1-.36,1.79Z"/><path class="cls-1" d="M12.37,2.93l34.28-.32A1.76,1.76,0,0,1,47.25,6L17.13,16.54a3.85,3.85,0,0,1-5-2.85L8.77,7.42A3.72,3.72,0,0,1,12.37,2.93Z"/><path class="cls-1" d="M574.66,129.77l78.89-60.15s10.46-10.24,23.29,0l63.54,37a5,5,0,0,1,2.42,5.23c-1.26,7-4.66,22.55-10.83,29.18-8,8.58-128.45,29.33-149.05,3.49a14.59,14.59,0,0,0-1.86-1.91C578,140,570.59,132.87,574.66,129.77Z"/><path class="cls-1" d="M631.11,50.5l-32.56-21a4.84,4.84,0,0,1-1.23-6.91L609.69,6A7.14,7.14,0,0,1,615.47,3c13.81,0,63.49.75,85.31,10.84,0,0,23.16,15.57,24.09,25.55.68,7.42-12.18,23.46-18.84,31.21a7.36,7.36,0,0,1-8.93,1.83L667.78,57.73a12.36,12.36,0,0,0-3.65-1.17l-28.71-4.42A11.21,11.21,0,0,1,631.11,50.5Z"/><path class="cls-1" d="M547.15,4H596a3.14,3.14,0,0,1,2.87,4.4,20.37,20.37,0,0,1-9,10.61c-7.09,4.38-31.73,3.39-38.82,1.15a5.83,5.83,0,0,1-4-4.64l-1.53-9.65A1.63,1.63,0,0,1,547.15,4Z"/><path class="cls-1" d="M547.29,179.62,567.11,154a7.56,7.56,0,0,1,8.42-2.7c9.54,3.2,30,10.67,40.05,19.82,11.85,10.84-53,11-67.29,10.85A1.43,1.43,0,0,1,547.29,179.62Z"/><path class="cls-1" d="M715.15,9.93c-1.46-2.29,0-7.32,2.65-7.67L735.25,2s41.39-3.5,59.65,3.79a11.13,11.13,0,0,1,6.8,8.41c1.63,9.26,4.67,26.18,1,28-3.87,1.94-45.9.72-61.35.2a10.72,10.72,0,0,1-8.69-5Z"/><path class="cls-1" d="M725.33,75.91A22.42,22.42,0,0,0,727,74,85.28,85.28,0,0,0,737,57.41c1.49-3.64,4.05-6.63,8-6.63h58.79a16,16,0,0,1,14,8.17c12.35,22,30.83,49,20.93,71.67a9.36,9.36,0,0,1-7.85,5.55l-66.32,5.37c-.69.05-1.62.38-2,.43-5.94.64-12.38-2.22-7.12-28.28a6.86,6.86,0,0,0-.23-3.08C754,106.06,748.76,94.23,725.5,82,723.15,80.77,723.49,77.74,725.33,75.91Z"/><path class="cls-1" d="M813.25.86h61.53c2.81,0,5,2.91,4.51,6.12-1.91,13.45-6.47,44.74-8.4,49.65-.89,2.29-32.49-6.88-42.75-8.22C824.71,48,818,47.7,816.84,44l-6.68-38.4C809.58,3.76,811.59.86,813.25.86Z"/><path class="cls-1" d="M837.24,58l65,14.68a3,3,0,0,1,2.34,3.08c-.21,4.36,3.4,15.66.22,15.18-3.72-.56-47.29,6.67-56.58,8.27a2.78,2.78,0,0,1-3-1.66L834.52,61.29A2.39,2.39,0,0,1,837.24,58Z"/><path class="cls-1" d="M897.19,3.88l-.74.25A15.2,15.2,0,0,0,886.54,15c-2,8.37-4.83,21.45-5.76,31a15.19,15.19,0,0,0,7.05,14.33l7.68,4.83a2.21,2.21,0,0,0,3.32-1.9l1-57.48A2,2,0,0,0,897.19,3.88Z"/><path class="cls-1" d="M899.84,112c0-1.15-4-13.77-5.17-14-8.3-1.5-39.63-4.32-49,39.91,0,0-5.28,13.71,47.53,38.38a2.39,2.39,0,0,0,3.39-2.16Z"/><path class="cls-1" d="M630.59,173.89c-.16-.35-.32-.71-.45-1.08a3.49,3.49,0,0,1,2.62-4.66c20-3.68,123.41-22.23,183.15-22.27a3,3,0,0,0,.43,0c2.25-.28,23-2.43,33.83,11a2.85,2.85,0,0,0,.41.44c1.86,1.6,14.62,12.64,20.51,18.57,5.73,5.76-189,6.11-227.38,6.12A14.38,14.38,0,0,1,630.59,173.89Z"/><path class="cls-1" d="M1116.17,97.56l12.51-54.89a4.78,4.78,0,0,1,3.39-3.58c2-.52,5-.54,9.13,1.47l125.94,27.62s5.7.6,0,11.06S1232,114.88,1232,114.88s-8.08,9-30.42,6.18Z"/><path class="cls-1" d="M1272.28,80.46a12.16,12.16,0,0,1,12.35-4.21L1349.83,92s6.43,1.82,6.65,6.09a17.38,17.38,0,0,0,1,5.31c4.66,12.2,20,55,15.18,76.05,0,0-31,9-65.91,7.73a26.81,26.81,0,0,0-4.57.2c-5.61.82-28,1.41-94.91-20.77,0,0-4.75-7.6,11.41-19.48Z"/><path class="cls-1" d="M1177.13,122.55s9.85-3.4,35.64,4.27c14.26,4.24-21.86,38.5-21.86,38.5l-20.44-2.85S1159.07,162,1177.13,122.55Z"/><path class="cls-1" d="M1069.44,64.46a3.24,3.24,0,0,1,.82-4.76A77.3,77.3,0,0,1,1110,48.41c12.44,0,2.43,29.39.36,35.15a3.58,3.58,0,0,1-1.22,1.63c-3.51,2.58-16.87,11.24-23.85-.66Z"/><path class="cls-1" d="M1350.12,82.2l-36.12-9s-17.34-6.27-5.71-23.76l7.19-11.19a13.05,13.05,0,0,0,1.43-2.65c.33-.9,2-2.32,10.29.53l10.62,3.63a18,18,0,0,0,6.63,1c10.11-.43,40-1.31,47.49,3,9,5.23-30.42,38.5-30.42,38.5S1358.39,84.27,1350.12,82.2Z"/><path class="cls-1" d="M1371.91,102.28c-3-5.6-7.39-18.79,10.52-27.84,0,0,15.69-6.55,43.25,12,0,0,7.13,6.17,3.33,11.4l-52.63,6.77A4.42,4.42,0,0,1,1371.91,102.28Z"/><path class="cls-1" d="M1385.28,109.76s58.93-9,68-3.8c0,0,17.59,4.75,20.44,10,0,0-3.8,45.63-39,61.31,0,0-44.67,10-49.43,3.33l-11.7-67.49Z"/><path class="cls-1" d="M1534.92,63.34a7.5,7.5,0,0,1-.54,11.42l-41.69,32.1s-9.2,9-23.29-1.9L1401,65.22a5.76,5.76,0,0,1-2.36-7c2.58-6.54,17.47-17.49,48-27.87C1481.76,18.37,1520.18,49.54,1534.92,63.34Z"/><path class="cls-1" d="M1304.73,36.73l-10.32,22s-10,12-32.31,3L1144.23,31.82s-7.6-6.65,17.59-22.33c23-14.36,124.51,18.43,141.56,24.1A2.29,2.29,0,0,1,1304.73,36.73Z"/><path class="cls-1" d="M1164.29,122.62l-48.12-19.46s-22.69-10.46-34.09,5.7c-7,9.94-13.32,17.55-17.13,21.93a4.47,4.47,0,0,0,1.34,6.92c14.41,7.36,56.42,27.2,90.87,27.23C1162.39,165,1164.29,122.62,1164.29,122.62Z"/><path class="cls-1" d="M1304.28,25.6,1230.09,8.44S1227.71,6,1232,3.88s68.22,1,68.22,1S1308.81,10.86,1304.28,25.6Z"/><path class="cls-1" d="M1335.59,32.27,1310.71,9l-.07-.06c-.9-.54-18.82-12.34,123.65-5.3,5.36.27,14.72,20.2-1.48,24-26.71,6.31-83.87,5.91-94.34,5.77A4.26,4.26,0,0,1,1335.59,32.27Z"/><path class="cls-1" d="M1129,25.6s-4.28-20,0-21.65,25.18-2.16,23.76,0S1138,27.5,1136.58,25.6c-.7-.93-2.91,1.84-4.6,2.06S1129,25.6,1129,25.6Z"/><path class="cls-1" d="M1121.05,4c2.85,5.44,2.85,29.46,2.85,29.46l-7.73,6.44-63.56,13.78c-28.51,8.08-32.79-10-32.79-10L1013,7.9A3.33,3.33,0,0,1,1016.23,4Z"/><path class="cls-1" d="M935.15,112a7.46,7.46,0,0,1,4.18-8.67l91.46-40.76s20.43-8.71,28.26,11.38a10.25,10.25,0,0,0,4.64,5.36c7,3.83,21.26,14.11,8,29.49l-66.18,64s-22.69,16.46-25.07,7.52-32.79-43.16-32.79-43.16S939.32,128.06,935.15,112Z"/><path class="cls-1" d="M1016.51,175.8l34.94-32.05a2.43,2.43,0,0,0,.34-.38c.68-.87,3.91-4.41,9.69-.87l.33.17,62.54,26.6a2.87,2.87,0,0,1-.58,5.47c-22.07,4.17-78.39,13.49-106.07,6A2.88,2.88,0,0,1,1016.51,175.8Z"/><path class="cls-1" d="M1014.91,60.66,1008,15.3s-1.41-13.54-17.09-10.42S913,25.6,913,25.6s-9.07-2.79-6.91,38.52l13.67,29.75a6.76,6.76,0,0,0,8.78,3.4Z"/><path class="cls-1" d="M968.27,175.69l-53.85-73.62s-4.31-5-4.79,0S903,174,905.84,180c3.64,7.52,47.47,1.66,60,.48A3.06,3.06,0,0,0,968.27,175.69Z"/><path class="cls-1" d="M1134.84,184.79a.93.93,0,0,1-.88-.56c-.83-2-3.17-8.41.48-11.15,0,0,20.9-4.92,30-4.28,0,0,0,2,.08,2,1.44-.07,39.22-1.64,64.74,10a.94.94,0,0,1-.36,1.79Z"/><path class="cls-1" d="M920.61,3.84l34.29-.32A1.77,1.77,0,0,1,955.5,7l-30.13,10.5c-2.06.72-14.27,4.58-14.93,2.56a5.24,5.24,0,0,0-.3-.78L907,13.32C906.53,11,918.27,3.86,920.61,3.84Z"/><path class="cls-1" d="M1477.91,130.67l78.89-60.14s10.45-10.25,23.29,0l63.54,37a5.06,5.06,0,0,1,2.42,5.24c-1.26,7-4.66,22.55-10.84,29.18-8,8.58-128.45,29.32-149,3.49a14.68,14.68,0,0,0-1.87-1.91C1481.26,140.89,1473.84,133.78,1477.91,130.67Z"/><path class="cls-1" d="M1534.35,51.4l-32.56-21a4.83,4.83,0,0,1-1.22-6.9l12.36-16.67a7.22,7.22,0,0,1,5.79-2.94c13.8,0,63.48.76,85.3,10.84,0,0,23.16,15.58,24.09,25.56.69,7.41-12.18,23.45-18.83,31.21a7.37,7.37,0,0,1-8.93,1.82L1571,58.64a12.23,12.23,0,0,0-3.66-1.17L1538.67,53A10.94,10.94,0,0,1,1534.35,51.4Z"/><path class="cls-1" d="M1450.39,4.88h48.83a3.14,3.14,0,0,1,2.88,4.4c-1.6,3.64-3.29,7.1-9,10.61-7.09,4.39-31.74,3.39-38.82,1.16a5.81,5.81,0,0,1-4-4.64l-1.53-9.65A1.62,1.62,0,0,1,1450.39,4.88Z"/><path class="cls-1" d="M1450.53,180.52l19.82-25.64a7.53,7.53,0,0,1,8.42-2.7c9.54,3.2,30,10.66,40.06,19.82,11.85,10.84-52.95,10.95-67.3,10.85A1.44,1.44,0,0,1,1450.53,180.52Z"/><path class="cls-1" d="M1618.39,10.84c-1.46-2.29,0-7.33,2.65-7.68l17.45-.28s41.39-3.49,59.65,3.8a11.09,11.09,0,0,1,6.8,8.4c1.63,9.26,4.67,26.18,1,28-3.87,1.94-45.9.72-61.36.2a10.74,10.74,0,0,1-8.69-5Z"/><path class="cls-1" d="M1624.58,76.82c.59-.59,1.09-1.25,1.62-1.89a85,85,0,0,0,10.07-16.62c1.5-3.63,4-6.63,8-6.63H1703a16,16,0,0,1,14,8.17c9.35,16.63,28.51,54.3,20.93,71.68a9.38,9.38,0,0,1-7.84,5.55l-66.32,5.36c-.7.06-1.62.39-2,.43-5.94.65-12.38-2.22-7.11-28.27a7.2,7.2,0,0,0-.23-3.09c-1.17-4.54-6.37-16.37-29.63-28.59C1622.39,81.68,1622.74,78.64,1624.58,76.82Z"/><path class="cls-1" d="M1716.49,1.76H1778c2.82,0,5,2.92,4.51,6.13-1.9,13.45-6.47,44.74-8.39,49.65-.9,2.28-32.5-6.89-42.75-8.22-3.43-.44-6.35-4.08-7.55-7.82l-10.44-35C1712.83,4.67,1714.84,1.76,1716.49,1.76Z"/><path class="cls-1" d="M1733.49,58.93l74,17.68a4.15,4.15,0,0,1,1.34,3.08c-.21,4.36-1,12.77-4.2,12.29-3.72-.57-48.87,2.56-58.16,4.15a2.78,2.78,0,0,1-3-1.66l-13.71-32.28C1729,60.4,1730.59,58.5,1733.49,58.93Z"/><path class="cls-1" d="M1800.44,5.78l-8.63,2.94s-10.46,39.9-7.61,49.18l14.56,9.16a2.21,2.21,0,0,0,3.32-1.9l1-57.49A2,2,0,0,0,1800.44,5.78Z"/><path class="cls-1" d="M1799.87,100.24a2.36,2.36,0,0,0-2-2.34c-8.3-1.5-39.63-4.33-49,39.9,0,0-5.29,13.72,47.53,38.38a2.38,2.38,0,0,0,3.39-2.15Z"/><path class="cls-1" d="M1533.84,174.8c-.17-.35-.32-.71-.46-1.08a3.49,3.49,0,0,1,2.62-4.66c20-3.69,123.41-22.23,183.16-22.28l.42,0c2.26-.28,23-2.43,33.83,11a4.37,4.37,0,0,0,.42.44c1.86,1.6,14.62,12.64,20.5,18.56,5.73,5.77-189,6.11-227.38,6.12A14.36,14.36,0,0,1,1533.84,174.8Z"/><path class="cls-1" d="M1918.79,163.76,1908,174.24s-22.7,16.45-25.07,7.51-32.8-43.16-32.8-43.16-8.3-9.05-12.46-25.15a7.44,7.44,0,0,1,4.18-8.66L1922.05,69"/><path class="cls-1" d="M1917.39,62.14l-6.89-45.37s-1.41-13.54-17.1-10.41-77.94,20.71-77.94,20.71-9.07-2.78-6.91,38.53l13.68,29.75a6.75,6.75,0,0,0,8.78,3.4Z"/><path class="cls-1" d="M1869.74,177.16l-53.84-73.61s-4.32-5-4.8,0-2.88,71.89,0,77.84c3.64,7.52,43.69,1.71,56.27.53A3.06,3.06,0,0,0,1869.74,177.16Z"/><path class="cls-1" d="M1818.09,5.32,1852.37,5a1.76,1.76,0,0,1,.6,3.42l-30.12,10.5a3.85,3.85,0,0,1-5-2.84l-3.32-6.28A3.71,3.71,0,0,1,1818.09,5.32Z"/></g></g></svg>