<svg xmlns="http://www.w3.org/2000/svg" viewBox="0 0 50.35 56.1"><defs><style>.cls-1{fill:#ec1334;}.cls-2{fill:#f298c5;}.cls-3{fill:#f5ad4e;}.cls-4{fill:#f4fb69;}.cls-5{fill:#fff;}.cls-6{fill:#231f20;}.cls-7{fill:#6b6b6d;}.cls-8{fill:#ea989f;}</style></defs><g id="Layer_2" data-name="Layer 2"><g id="최종완성"><path class="cls-1" d="M27,9A38.3,38.3,0,0,0,25.72.07a7.61,7.61,0,0,0-1-.07A7.78,7.78,0,0,0,17,7.78,7.12,7.12,0,0,0,17.09,9,39.72,39.72,0,0,0,27,9Z"/><path class="cls-2" d="M17.09,9a7.78,7.78,0,0,0,7.67,6.55,7.35,7.35,0,0,0,1.42-.14A24.14,24.14,0,0,0,27,9,39.72,39.72,0,0,1,17.09,9Z"/><path class="cls-3" d="M32.54,7.78A7.77,7.77,0,0,0,25.72.07,38.3,38.3,0,0,1,27,9c1.88-.19,3.75-.45,5.57-.7C32.53,8.1,32.54,7.94,32.54,7.78Z"/><path class="cls-4" d="M27,9a24.14,24.14,0,0,1-.77,6.46,7.77,7.77,0,0,0,6.34-7.16C30.7,8.51,28.83,8.77,27,9Z"/><path class="cls-2" d="M25.08,32.86V21.42h-.32A17.34,17.34,0,0,0,7.41,38.75a17,17,0,0,0,.13,2c3.32-1.68,7.43-2,11.46-2.1A6.24,6.24,0,0,1,25.08,32.86Z"/><path class="cls-1" d="M19,39.09c0-.14,0-.27,0-.41-4,.07-8.14.42-11.46,2.1A17.35,17.35,0,0,0,24.76,56.1h.32V45.32A6.24,6.24,0,0,1,19,39.09Z"/><path class="cls-4" d="M41.48,43.33a30.65,30.65,0,0,0-10-4.38s0,.09,0,.14a6.23,6.23,0,0,1-6.24,6.23h-.13V56.09A17.36,17.36,0,0,0,41.48,43.33Z"/><path class="cls-3" d="M25.21,32.86A6.22,6.22,0,0,1,31.44,39a30.65,30.65,0,0,1,10,4.38,17.7,17.7,0,0,0,.63-4.58,17.34,17.34,0,0,0-17-17.33V32.86Z"/><circle id="도넛속" class="cls-5" cx="24.72" cy="38.95" r="8.41"/><path class="cls-6" d="M27.36,41.35a2.55,2.55,0,0,1-4.48.17c-.27-.46-1,0-.71.41a3.37,3.37,0,0,0,5.9-.16C28.32,41.3,27.61,40.88,27.36,41.35Z"/><path class="cls-6" d="M28.34,35.38a1,1,0,0,0,0,2A1,1,0,0,0,28.34,35.38Z"/><path class="cls-6" d="M21.21,35.61a1,1,0,0,0,0,2A1,1,0,0,0,21.21,35.61Z"/><path class="cls-3" d="M14.68,18.43a14.6,14.6,0,0,1-4.52-2.37c-5.35-4.28-8.44,0-8.44,0s-4.51,4.28,1.07,7.72a22.07,22.07,0,0,0,6.7,3.83C10.89,24,11.94,20.94,14.68,18.43Z"/><path class="cls-4" d="M24.76,19.74a29.65,29.65,0,0,1-10.08-1.31c-2.74,2.51-3.79,5.57-5.19,9.18a42.38,42.38,0,0,0,15.27,2.71h.32V19.73Z"/><path class="cls-2" d="M48.06,15.56c-3.34-2.53-5.14.64-12.74,2.7,2.24,2.94,3.86,6.14,5.77,9A31.75,31.75,0,0,0,49,22.83,4.7,4.7,0,0,0,48.06,15.56Z"/><path class="cls-1" d="M25.08,19.73V30.31a42.58,42.58,0,0,0,16-3.06c-1.91-2.85-3.53-6.05-5.77-9A45.76,45.76,0,0,1,25.08,19.73Z"/><path class="cls-7" d="M41.32,43.81s10.09-5.91,0-12.51c-1-.62-1.61.8-1.61.8V43S40.23,44.57,41.32,43.81Z"/><path class="cls-7" d="M25.56,50.25s-1.65.58,0,1.89c.48.39,4.38.25,4.38.25a1.92,1.92,0,0,0,0-2.14C29.64,49.71,25.56,50.25,25.56,50.25Z"/><path class="cls-7" d="M29.45,51.62l-.05-.82c.1,0,10.57-.69,11-7.54l.81.05C40.75,50.89,29.56,51.61,29.45,51.62Z"/><path class="cls-8" d="M21.09,39.2H18.6a.5.5,0,0,0-.5.5.5.5,0,0,0,.5.5h2.49a.5.5,0,1,0,0-1Z"/><path class="cls-8" d="M31.5,39.2H29a.51.51,0,0,0-.5.5.51.51,0,0,0,.5.5h2.5a.5.5,0,0,0,0-1Z"/></g></g></svg>