<svg xmlns="http://www.w3.org/2000/svg" viewBox="0 0 50.35 56.1"><defs><style>.cls-1{fill:#ec1334;}.cls-2{fill:#f298c5;}.cls-3{fill:#f5ad4e;}.cls-4{fill:#f4fb69;}</style></defs><g id="Layer_2" data-name="Layer 2"><g id="기본logo"><path class="cls-1" d="M27,9A38.3,38.3,0,0,0,25.72.07a7.61,7.61,0,0,0-1-.07A7.78,7.78,0,0,0,17,7.78,7.12,7.12,0,0,0,17.09,9,39.72,39.72,0,0,0,27,9Z"/><path class="cls-2" d="M17.09,9a7.78,7.78,0,0,0,7.67,6.55,7.35,7.35,0,0,0,1.42-.14A24.14,24.14,0,0,0,27,9,39.72,39.72,0,0,1,17.09,9Z"/><path class="cls-3" d="M32.54,7.78A7.77,7.77,0,0,0,25.72.07,38.3,38.3,0,0,1,27,9c1.88-.19,3.75-.45,5.57-.7C32.53,8.1,32.54,7.94,32.54,7.78Z"/><path class="cls-4" d="M27,9a24.14,24.14,0,0,1-.77,6.46,7.77,7.77,0,0,0,6.34-7.16C30.7,8.51,28.83,8.77,27,9Z"/><path class="cls-2" d="M24.72,30.54l.36,0V21.42h-.32A17.34,17.34,0,0,0,7.41,38.75a17,17,0,0,0,.13,2,22.69,22.69,0,0,1,8.78-2A8.41,8.41,0,0,1,24.72,30.54Z"/><path class="cls-1" d="M24.72,47.36A8.41,8.41,0,0,1,16.31,39c0-.05,0-.11,0-.16a22.69,22.69,0,0,0-8.78,2A17.35,17.35,0,0,0,24.76,56.1h.32V47.34Z"/><path class="cls-4" d="M25.08,47.34v8.75a17.36,17.36,0,0,0,16.4-12.76,31.66,31.66,0,0,0-8.37-3.94A8.39,8.39,0,0,1,25.08,47.34Z"/><path class="cls-3" d="M25.08,21.42v9.14A8.4,8.4,0,0,1,33.13,39c0,.15,0,.29,0,.44a31.66,31.66,0,0,1,8.37,3.94,17.7,17.7,0,0,0,.63-4.58A17.34,17.34,0,0,0,25.08,21.42Z"/><path class="cls-3" d="M14.68,18.43a14.6,14.6,0,0,1-4.52-2.37c-5.35-4.28-8.44,0-8.44,0s-4.51,4.28,1.07,7.72a22.07,22.07,0,0,0,6.7,3.83C10.89,24,11.94,20.94,14.68,18.43Z"/><path class="cls-4" d="M24.76,19.74a29.65,29.65,0,0,1-10.08-1.31c-2.74,2.51-3.79,5.57-5.19,9.18a42.38,42.38,0,0,0,15.27,2.71h.32V19.73Z"/><path class="cls-2" d="M48.06,15.56c-3.34-2.53-5.14.64-12.74,2.7,2.24,2.94,3.86,6.14,5.77,9A31.75,31.75,0,0,0,49,22.83,4.7,4.7,0,0,0,48.06,15.56Z"/><path class="cls-1" d="M25.08,19.73V30.31a42.58,42.58,0,0,0,16-3.06c-1.91-2.85-3.53-6.05-5.77-9A45.76,45.76,0,0,1,25.08,19.73Z"/></g></g></svg>