<?xml version="1.0" encoding="utf-8"?>
<!-- Generator: Adobe Illustrator 24.2.1, SVG Export Plug-In . SVG Version: 6.00 Build 0)  -->
<svg version="1.1" id="Layer_1" xmlns="http://www.w3.org/2000/svg" xmlns:xlink="http://www.w3.org/1999/xlink" x="0px" y="0px"
	 viewBox="0 0 255.1 255.1" style="enable-background:new 0 0 255.1 255.1;" xml:space="preserve">
<style type="text/css">
	.st0{fill:#5C3D22;}
	.st1{fill:#231F20;}
	.st2{fill:none;}
	.st3{fill:#FFFFFF;}
	.st4{fill:none;stroke:#231F20;stroke-width:7.0214;stroke-miterlimit:10;}
	.st5{fill:#FFFFFF;stroke:#231F20;stroke-width:7.0214;stroke-miterlimit:10;}
	.st6{fill:none;stroke:#010101;stroke-width:8.4832;stroke-miterlimit:10;}
	.st7{clip-path:url(#SVGID_2_);}
	.st8{fill:#010101;}
</style>
<g id="Layer_2_1_">
	<g id="Layer_6">
		<path class="st0" d="M-109.2-270.5c-42.6-0.9-153.1,26.7-154.1,27l-1,0.2v9.6l142.7-27v24l7.9-8.5v-17l11.7-2.2l44.3-3.7v-7
			L-109.2-270.5z"/>
		<path class="st1" d="M-40.1-190.2c-4.1-16.5-48.8-54.5-57.7-62l0,0c-0.4-0.3-0.8-0.5-1.2-0.7l0,0c-0.4-0.2-0.9-0.3-1.4-0.3h-0.3
			c-0.5,0-0.9,0-1.4,0.2l0,0c-0.2,0.1-0.5,0.1-0.7,0.3c-14.3,7.1-93.1,52-96.4,53.9c-2,1.1-2.9,3.5-2.2,5.7
			c11.1,33.5,9.3,82,9.1,83.6c-0.2,1.6-4.8,59.6-9.2,75.1c-0.4,1.4-0.2,2.9,0.7,4.2c0.8,1.2,2.2,2,3.7,2.1l111,8.2h0.4h1
			c30.2-6,43.8-18.2,44.4-18.7c0.6-0.6,1.1-1.3,1.3-2.1c10.2-30.6,7.7-82,7.3-88.8C-27.4-149.3-39.1-186.8-40.1-190.2z M-49.7-187.8
			v0.4c3.3,10.3,10.9,39,8.5,53.9L-72.4-118c1.7-16,1.8-51.6-16.7-110.2c-0.5-1.5-1-3-1.4-4.5C-72-216.1-51.5-195.8-49.7-187.8z
			 M-103.6-241.3c1.1,3.1,2.1,6.1,3.3,9.1c7.6,23.8,21.1,73.3,17.4,118h-99.3c0.3-13.1,0-49.2-8.5-78.1
			C-176.8-200.4-123-231-103.6-241.3z M-182.9-104.4h99.2c-0.2,19.2-1.3,38.4-3.5,57.5c-1,7-1.9,13.1-2.5,16.8l-101-7.4
			C-187.2-55.4-184-91.5-182.9-104.4z M-47.9-45.3c-9.6,6.7-20.3,11.4-31.7,14c0.6-3.7,1.3-8.8,2.1-15.1c2.6-18.7,5.4-44.5,4-59.9
			l32.1-15.9C-40.8-106.5-40.5-69-47.9-45.3z"/>
	</g>
</g>
<g id="Layer_2_2_">
	<g id="Layer_6_1_">
		<path class="st1" d="M139-27.5c-27.5,0-62.3-5-89.6-25.6S8.4-103.7,5.9-144.2c-3.1-49.8,29.7-60.8,44-63.2s37.9,5.7,44.8,20.1
			c3.8,9.7,6.6,19.7,8.4,30c2.5,11.3,5.3,24.2,9.9,39.4c12.9,41.7,73.1,75,73.7,75.5l12.9,7.1l-14.4,3.3C170-29,154.5-27.4,139-27.5
			z M55.7-196.7c-1.3-0.1-2.6-0.1-4,0c-17.1,2.9-37,14.2-34.7,51.4s15.5,64.9,39,82.5c35.6,26.8,86.9,24.5,112,21.4
			c-19.7-13-55.5-40.4-65.9-73.9c-4.8-15.6-7.5-29.3-10.2-40.3c-1.6-9.4-4.1-18.7-7.5-27.7C80.4-190.8,66.2-196.7,55.7-196.7z"/>
		<path class="st1" d="M23.4-21c-5.3,0.1-10.6-0.8-15.7-2.5c-3.7-1.3-6.5-4.4-7.5-8.2c-0.8-3.8,0.2-7.9,2.8-10.8l28.6-34.6l8.7,7.5
			l-28.7,34c-0.2,0.3-0.2,0.7,0,1c8.2,3.4,26.7,5.4,62.3-15l5.5,9.8C54.4-25.3,36.3-21,23.4-21z"/>
		<path class="st1" d="M240.8-20c-19.3,0-54.5-11.5-62.3-14.1l3.5-10.6c20.3,6.8,52.3,15,62,13.3c0-8.5-17.4-41.2-35.1-68l9.3-6.2
			c12.5,18.9,41.1,64.5,36.2,78.8c-0.9,2.7-3,4.9-5.7,5.8C246.2-20.3,243.5-19.9,240.8-20z"/>
		<path class="st1" d="M233.9-76.2l-10.3-4.5c10.6-28.6,11.9-59.8,3.7-89.2c0.1,2.6,0,5.3-0.4,7.9c-1,9.5-4.1,18.6-9,26.8
			c-10.8,12.7-19.9,18.4-27.9,17.6c-4.9-0.7-9.2-3.8-11.3-8.3c-24.7-45.3-51.4-71.7-80.7-78.3c-15-3.8-30.8-1.3-43.9,6.9l-6.6-9.1
			c15.6-10.1,34.7-13.3,52.7-8.9c32.2,7.5,61.9,35.6,88.3,84.1c1.3,2.4,2.4,2.5,2.8,2.5c2.7,0,9.1-3.1,18.1-13.7
			c3.5-6.5,5.6-13.7,6.4-21.1c0.5-3.7,0.3-7.5-0.5-11.2l-8.3-35.5c-0.6-2.6,0.7-5.2,3.1-6.4c2.4-1.1,5.2-0.5,6.8,1.6
			C264.8-150.3,235.1-79.2,233.9-76.2z"/>
		<path class="st1" d="M212.1-205.9c-0.5,0.1-1.1,0.1-1.6,0l-59-18.1c-4.7-1.5-7.4-6.5-5.9-11.3c1.1-3.5,4.1-5.9,7.7-6.3l38.1-3.4
			c2-0.2,3.8-1.2,5-2.8l16.4-23.4c2.8-4.1,8.3-5.2,12.4-2.5c3.2,2.2,4.7,6.2,3.6,10l-11.3,53.3c-0.3,1.5-1.3,2.9-2.6,3.7
			C214-206.2,213-205.9,212.1-205.9z M165.8-231.6l42,12.9l7.5-37.1l-9.9,14.3c-3.1,4.3-7.9,7-13.1,7.5L165.8-231.6z"/>
		<path class="st1" d="M52.6-86.1c-8.8-15.2-14.3-32.1-16.2-49.6c-0.1-2-1.7-3.7-3.7-3.7c-2,0-3.7,1.7-3.7,3.7
			c2,18.8,7.9,37,17.2,53.4c1.2,1.7,3.5,2,5.2,0.8C52.8-82.5,53.3-84.4,52.6-86.1z"/>
		<path class="st1" d="M74.4-85.7c-8.7-19.2-14-39.8-15.8-60.8c-0.4-4.7-7.9-4.8-7.5,0c1.9,22.3,7.6,44.2,16.8,64.6
			C70-77.5,76.4-81.3,74.4-85.7z"/>
		<path class="st1" d="M89.9-102.5c-3-14.2-5.9-28.5-8.8-42.7c-1-4.6-8.2-2.7-7.5,2c3,14.2,5.9,28.5,8.9,42.7
			C83.5-95.6,90.8-97.6,89.9-102.5z"/>
		<path class="st1" d="M130.6-153.7c-4.1,0-7.5,3.4-7.5,7.5s3.3,7.5,7.5,7.5s7.5-3.4,7.5-7.5S134.7-153.7,130.6-153.7z"/>
	</g>
</g>
<g id="Layer_2_3_">
	<g id="블랙_그룹">
		<path class="st2" d="M368.3-100.4v0.9c0.1,17.7,14.5,32.1,32.2,32.2h1.4c16.7-0.7,30.1-14,31-30.6v-1.7
			c0.1-17.4-13.6-31.8-31-32.5h-1.6C382.9-131.9,368.8-117.9,368.3-100.4z"/>
		<path class="st3" d="M378.7-134.5c-12.3-1.2-24.4-3.7-36.2-7.4c-8.6,12-13.2,26.4-13.1,41.2c0,0.7,0,1.5,0,2.3l0.7-0.2
			c1.8-0.7,3.6-1.3,5.5-1.9h0.4c2.1-0.6,4.4-1.1,6.5-1.6l1.6-0.4c2.1-0.4,4.4-0.7,6.3-1.1h0.9c2.5-0.3,5-0.6,7.7-0.8h0.8
			C361.3-116.6,368.2-127.8,378.7-134.5z"/>
		<path class="st3" d="M359.7-95.8h-0.4c-2.6,0.3-5.1,0.5-7.5,0.9l-1.5,0.2c-2.4,0.4-4.7,0.8-6.8,1.3l0,0c-2.2,0.5-4.4,1.1-6.2,1.7
			l-1.3,0.4c-1.9,0.6-3.7,1.3-5.4,2h-0.3c5.4,33.6,33.6,58.7,67.6,60.2v-29.5C377.8-60.1,361.7-75.8,359.7-95.8z"/>
		<path class="st3" d="M343.4-93.4L343.4-93.4z"/>
		<path class="st3" d="M350.3-94.7l1.5-0.2L350.3-94.7z"/>
		<path class="st3" d="M330.3-89.2L330.3-89.2h0.3H330.3z"/>
		<path class="st3" d="M336-91.4l1.3-0.4L336-91.4z"/>
		<path class="st3" d="M359.7-95.8L359.7-95.8z"/>
		<path class="st3" d="M406.7-59.1v29.6c28.7-2.5,53.2-21.8,62.3-49.1c-1.6-1-3.2-2-4.8-2.9l-1.7-1c-2.7-1.5-5.3-2.8-8-4.1l-2.1-1
			c-2-0.9-4-1.8-6-2.5l-2.8-1.1l-2.2-0.8C438.1-74.7,424.1-61.4,406.7-59.1z"/>
		<path class="st3" d="M441.9-101.1c1.5,0.5,3.1,1.1,4.4,1.6l2.1,0.7c2.8,1.1,5.6,2.3,8.5,3.6l2,1l6.7,3.4l2.8,1.6l2.7,1.5
			c0.8-4.3,1.3-8.7,1.3-13.1c0-14.7-4.6-29.1-13.1-41.1c-11.7,3.6-23.8,6-36,7.3C434.5-127.2,441.6-114.7,441.9-101.1z"/>
		<path class="st3" d="M468.5-89.1l-2.8-1.7L468.5-89.1z"/>
		<path class="st3" d="M459.1-94.1l-2-1L459.1-94.1z"/>
		<path class="st3" d="M448.6-98.7l-2.1-0.8L448.6-98.7z"/>
		<path class="st3" d="M386.9-179.6c-9.8-0.6-19.5-2.2-29-5c-8.8,8.8-12.9,19-17.5,31.6c-0.2,0.3-0.3,0.7-0.4,1.1l4.1,1.4
			c1.5,0.5,3.1,1,4.6,1.4c16.1,4.6,32.7,7,49.5,7.2v-37.4C395.4-179.3,391.5-179.4,386.9-179.6z"/>
		<path class="st3" d="M459.2-163.8c-4.4-7.2-8.8-14.5-13.8-21.5c-11.1,2.7-22.4,4.5-33.8,5.3l-4.9,0.4v37.7
			c15.8-0.3,31.5-2.7,46.7-7l4.7-1.4l4.4-1.5l3.4-1.1C463.6-156.7,461.4-160.3,459.2-163.8z"/>
		<path class="st1" d="M363-230.1l0.7,3.2c4.2,17.1,19.6,29.2,37.3,29.1h0.4l6.7-0.7l0,0l2.8-0.7c14.8-3.9,25.9-16.3,28.2-31.4
			l0.4-3.6v-5c-1.4-17.1-13.9-31.2-30.7-34.7l-3-0.5l0,0l-6.2-0.3c-20.6,0.8-36.9,17.7-36.9,38.3v0.3L363-230.1z M373.1-225.7h0.8
			c2.1,0,4.2,0.3,6.3,0.4h0.3h5.3h3.6c2.1,0,4.4,0,6.6,0h1.1c2.6,0,5.3-0.4,8.1-0.6h0.7c0,0.3,0,0.6,0,0.9c0,3-0.3,6-0.7,8.8
			c-0.1,0.4-0.2,0.9-0.2,1.4c-0.4,2.5-0.8,4.9-1.3,7.3l-0.3,1.2C390.2-205.2,377.7-213.1,373.1-225.7z M413-209.2c0-0.4,0-0.8,0-1.2
			c0.4-2.2,0.7-4.4,1-6.7c0-1,0-1.9,0.2-2.8c0-1.9,0.3-3.8,0.4-5.7c0-0.5,0-1,0-1.5l0,0l4.1-0.5l8.8-1.1l2-0.3
			C427.2-220.2,421.2-212.9,413-209.2z M430.5-237.9l-7.9,1.1h-1.1l-6.8,0.8c0-1,0-2.1-0.2-3.1v-2.2c-0.2-2.9-0.5-5.8-0.9-8.8
			c0-0.4,0-0.8,0-1.1c-0.4-2.6-0.8-5.3-1.4-8c0-0.9-0.3-1.8-0.5-2.6c-0.2-0.9-0.3-1.6-0.5-2.4C422.4-260.2,430-249.8,430.5-237.9z
			 M400.9-265.8h0.6c0.4,1.8,0.8,3.5,1.2,5.3c0,0.8,0.4,1.6,0.5,2.3c0.6,3,1.1,6,1.5,8.8c0,0.7,0,1.3,0.2,1.9
			c0.3,2.2,0.5,4.4,0.7,6.6c0,1,0,1.9,0,2.8c0,0.9,0,2.1,0,3.1H405l-8.5,0.7h-1.8c-2.5,0-4.9,0-7.1,0h-1c-2.5,0-4.9,0-7.2,0h-1.5
			c-2.3,0-4.4-0.3-6.6-0.5l0,0c0-0.5,0-1,0-1.5C371.5-252.7,384.7-265.7,400.9-265.8z"/>
		<path class="st1" d="M505.5-205.7L505.5-205.7c-11.3-8.8-20.1-4.6-32.2,0.9c-8.8,4.2-18,7.6-27.4,10.2c-14.3,3.7-29,5.8-43.8,6.3
			h-3.9c-13.6,0.4-27.1-1.5-40.1-5.4c-6.7-2.1-12.9-5.4-18.5-9.7c-7.1-6.5-16.6-9.8-26.3-9.1c-6.5,1.1-12.4,4.5-16.6,9.6
			c-5.7,5.5-8.9,13.2-8.8,21.1c1.3,8.2,6.5,15.3,13.9,19.1c7.9,6.5,16.8,11.8,26.3,15.6l4,1.7l0,0l1.4,0.6
			c-8.6,13.1-13.2,28.5-13.1,44.2c0,2,0,4.1,0.3,6.3l0.3,3.1l0,0l1,6c7.1,36.6,38.5,63.4,75.8,64.7h2.5h1.6l4.7-0.2
			c31.7-2.5,59-23.3,69.7-53.1l1.8-5.6l0.7-3.2c5.2-21.3,1.1-43.8-11.1-62l2.8-1.1l0,0l3.3-1.4l5-2l0,0c11-4.6,21.4-10.6,30.9-17.9
			l0.4-0.4c4.8-5.4,7.3-12.4,7-19.6C516.2-194.6,512-201.4,505.5-205.7z M406.7-29.5v-29.6c17.5-2.4,31.4-15.7,34.7-33l2.4,0.8
			l2.8,1.1c2,0.8,4,1.7,6,2.5l2.1,1c2.7,1.3,5.3,2.6,8,4.1l1.7,1c1.6,0.9,3.2,1.9,4.8,2.9C460.1-51.2,435.5-31.9,406.7-29.5z
			 M329.3-98.3c0-0.8,0-1.6,0-2.3c0-14.8,4.6-29.2,13.1-41.2c11.8,3.6,23.9,6.1,36.2,7.3c-10.4,6.6-17.3,17.6-18.9,29.8H359
			c-2.7,0-5.2,0.5-7.7,0.8h-0.9c-2.2,0.3-4.4,0.7-6.3,1.1l-1.6,0.4c-2.2,0.4-4.4,1-6.5,1.6h-0.4c-1.9,0.6-3.7,1.2-5.5,1.9
			L329.3-98.3z M433.1-98.3c-0.8,16.7-14.3,30-31,30.6h-1.6c-17.6-0.1-31.9-14.2-32.2-31.8v-0.8c0.4-17.5,14.6-31.6,32.2-31.8h1.5
			c17.4,0.7,31.1,15,31,32.3L433.1-98.3z M398.1-179.6v37.4c-16.7-0.2-33.4-2.6-49.5-7.2c-1.6-0.4-3.1-0.9-4.6-1.4l-4.2-1.2
			c0.1-0.3,0.3-0.6,0.4-0.9l0,0c0.5-1.4,1.1-2.8,1.6-4.1l0.7-1.9c0.4-0.9,0.7-1.8,1.1-2.7s0.7-1.7,1.1-2.5s0.6-1.3,0.9-2
			c0.7-1.4,1.3-2.8,2.1-4.4l0.7-1.3c0.5-1,1.1-1.9,1.6-2.8c0.6-0.9,0.7-1,1-1.5c0.3-0.5,1.1-1.6,1.6-2.4l1.2-1.5l1.8-2.1l1.4-1.5
			l1.1-1.1c9.4,2.7,19.1,4.4,28.9,4.9c4.7,0.4,8.6,0.4,11.1,0.4L398.1-179.6z M330.3-89.2h0.3c1.7-0.7,3.5-1.4,5.4-2l1.3-0.4
			c2-0.6,4-1.2,6.2-1.7l0,0c2.1-0.5,4.4-0.9,6.8-1.3l1.5-0.2c2.4-0.4,4.9-0.6,7.5-0.9h0.4c2,20,18.1,35.7,38.2,37.1V-29
			C363.9-30.5,335.6-55.6,330.3-89.2L330.3-89.2z M471.2-87.6l-2.7-1.5l-2.8-1.7l-6.7-3.4l-2-1c-2.8-1.3-5.6-2.5-8.5-3.6l-2.1-0.7
			c-1.5-0.6-3.1-1.1-4.4-1.6c-0.4-13.5-7.5-26-18.8-33.3c12.3-1.3,24.4-3.8,36.2-7.4c8.5,12,13.1,26.4,13.1,41.1
			C472.6-96.3,472.1-91.9,471.2-87.6z M458.1-150.5l-4.7,1.4c-15.2,4.3-30.9,6.7-46.7,7v-37.7l4.9-0.4c11.4-0.8,22.7-2.5,33.8-5.3
			c0.5,0.7,1,1.4,1.5,2.1l1.6,2.3c0.8,1.1,1.6,2.3,2.3,3.5l1.4,2.2l2.5,4l1.1,1.8l3.4,5.6c1.8,3,3.7,6,5.6,9.1l1,1.7l-3.4,1.1
			L458.1-150.5z M307-169.9c-5.2-2.4-9-7.1-10.2-12.7c0.1-5.4,2.3-10.4,6.1-14.2l0.5-0.6c2.9-3.4,6.9-5.7,11.3-6.4
			c0.7,0,1.4,0,2.1,0c6.4,0.4,12.5,3,17.2,7.4c4.5,3.6,9.5,6.5,14.8,8.8c-1,1.1-1.9,2.3-2.8,3.4v0.2c-1.1,1.4-2,2.8-2.9,4.4
			c-0.3,0.5-0.6,0.9-0.8,1.4c-0.6,1-1.2,2-1.8,3l-0.8,1.7c-0.5,1-1.1,2-1.5,3l-0.8,1.7l-1.4,3.4c-0.2,0.5-0.4,0.9-0.6,1.4
			c-1.3,3-2.5,6.1-3.7,9.4c-8.7-3.6-16.8-8.5-24-14.7L307-169.9z M503.1-173.9c-8.8,7.2-18.5,13.1-29,17.5c-0.7-1.1-1.4-2.1-2-3.2
			l-1.3-2c-1.4-2.2-2.7-4.4-4.1-6.7s-3.5-5.6-5-8.2l-1.4-2.3c-1.8-2.9-3.7-5.8-5.7-8.8l-0.1-0.4c7.7-2.4,15.3-5.4,22.6-8.8
			c12.6-5.7,16.5-7.1,23.3-1.9l0,0c4.4,3.1,7.4,7.8,8.2,13.1C508.6-180.9,506.6-176.7,503.1-173.9z"/>
	</g>
</g>
<g id="Layer_2_4_">
	<g id="Layer_1-2">
		<g id="무색파일_합본">
			<path class="st4" d="M-44.6,31h-116.8c-1.6-4.8-6-8-11-8h-75.7c-6.4,0-11.7,5.2-11.7,11.7c0,0.4,0,0.7,0,1.1
				c-2.3,2.6-3.5,5.9-3.5,9.3v152.1c0,7.8,6.3,14,14,14h204.7c7.8,0,14-6.3,14-14V45.1C-30.6,37.3-36.9,31-44.6,31L-44.6,31z"/>
			<path class="st4" d="M-41.5,211.2h-212.2c-7.8,0-14-6.3-14-14v-132c0-7.8,6.3-14,14-14h212.2c7.8,0,14,6.3,14,14v132
				C-27.4,204.9-33.7,211.2-41.5,211.2z"/>
			<rect id="서류_뒤" x="-195.1" y="68.1" class="st5" width="134.1" height="152.9"/>
			<rect id="서류_앞" x="-174.1" y="79.2" class="st5" width="134.1" height="152.9"/>
			<path class="st1" d="M-151.2,110.1c0,0,0-1.3,0-0.7c0-0.4,0.2,0,0,0c0.7-0.1,1.4-0.1,2.1,0c2,0.4,4,1,5.8,2
				c3.1,1.2,6.5,1.7,9.8,1.5c3.8,0.3,7.6,0.2,11.4-0.4c3.4-1.2,6.8-2.3,10.4-3.1c3.3-0.2,6.6,0.3,9.7,1.4c3.1,1,6.3,1.6,9.5,1.5
				c1.8-0.1,3.5-0.5,5.2-1.1c1.6-0.9,3.4-1.5,5.2-2c1.5,0.1,2.9,0.6,4,1.6c1.7,1.1,3.7,1.7,5.7,1.9c3.9,0.2,7.4-2,11.3-1.7
				c4.5,0.3,4.5-6.7,0-7c-3.5-0.3-6.8,1.6-10.3,1.8c-1.5-0.1-3-0.7-4.2-1.7c-1.6-1.1-3.5-1.7-5.4-1.9c-4-0.3-7,2.4-10.8,3
				c-3.2,0.2-6.5-0.2-9.5-1.4c-3.5-1.2-7.2-1.6-10.9-1.4c-3.9,0.8-7.7,1.9-11.5,3.2c-3.8,0.5-7.7,0.5-11.6,0
				c-2.8-0.2-5.4-0.9-7.9-2.1c-5.1-2-13.7-2.5-14.7,4.7c-0.7,1.8,0.2,3.8,2,4.6c1.8,0.7,3.8-0.2,4.6-2c0.1-0.3,0.2-0.5,0.2-0.8
				L-151.2,110.1z"/>
			<path class="st1" d="M-151.2,133.5c0,0,0-1.3,0-0.7c0-0.4,0.2,0,0,0c0.7-0.1,1.4-0.1,2.1,0c2,0.4,4,1,5.8,2
				c3.1,1.2,6.5,1.7,9.8,1.5c3.8,0.3,7.6,0.2,11.4-0.4c3.4-1.2,6.8-2.3,10.4-3.1c3.3-0.1,6.5,0.4,9.5,1.5c3.1,1,6.3,1.6,9.5,1.5
				c1.8-0.1,3.5-0.5,5.2-1.1c1.6-0.9,3.4-1.5,5.2-2c1.5,0.1,2.9,0.7,4,1.7c1.7,1.1,3.7,1.7,5.7,1.9c3.9,0.2,7.4-2,11.3-1.7
				c4.5,0.3,4.5-6.7,0-7c-3.5-0.3-6.8,1.6-10.3,1.8c-1.5-0.1-3-0.7-4.2-1.7c-1.6-1.1-3.5-1.7-5.4-1.9c-4-0.3-7,2.4-10.8,3
				c-3.3,0.2-6.5-0.3-9.5-1.5c-3.5-1.2-7.2-1.6-10.9-1.4c-3.9,0.8-7.7,1.9-11.5,3.2c-3.8,0.5-7.7,0.5-11.6,0
				c-2.8-0.2-5.4-0.9-7.9-2.1c-5-2.1-13.5-2.5-14.6,4.9c-0.7,1.8,0.2,3.8,2,4.6s3.8-0.2,4.6-2c0.1-0.3,0.2-0.5,0.2-0.8V133.5z"/>
			<path class="st1" d="M-151.2,156.8c0,0,0-1.3,0-0.7c0-0.4,0.2,0,0,0c0.7-0.1,1.4-0.1,2.1,0c2,0.4,4,1,5.8,2
				c3.1,1.2,6.5,1.7,9.8,1.5c3.8,0.3,7.6,0.2,11.4-0.4c3.4-1.2,6.8-2.3,10.4-3.1c3.3-0.1,6.5,0.4,9.5,1.5c3.1,1,6.3,1.6,9.5,1.5
				c1.8-0.1,3.5-0.5,5.2-1.1c1.6-0.9,3.4-1.5,5.2-2c1.5,0.1,2.9,0.7,4,1.7c1.7,1.1,3.7,1.7,5.7,1.9c3.9,0.2,7.4-2,11.3-1.7
				c4.5,0.3,4.5-6.7,0-7c-3.5-0.3-6.8,1.6-10.3,1.8c-1.5-0.1-3-0.7-4.2-1.7c-1.6-1.1-3.5-1.7-5.4-1.9c-4-0.3-7,2.4-10.8,3
				c-3.3,0.2-6.5-0.3-9.5-1.5c-3.5-1.2-7.2-1.6-10.9-1.4c-3.9,0.8-7.7,1.9-11.5,3.2c-3.8,0.5-7.7,0.5-11.6,0
				c-2.8-0.2-5.4-0.9-7.9-2.1c-5.1-2-13.7-2.5-14.7,4.7c-0.7,1.8,0.2,3.8,2,4.6s3.8-0.2,4.6-2c0.1-0.3,0.2-0.5,0.2-0.8L-151.2,156.8
				z"/>
			<path class="st1" d="M-151.2,180.2c0,0,0-1.3,0-0.7c0-0.4,0.2,0,0,0c0.7-0.1,1.4-0.1,2.1,0c2,0.4,4,1,5.8,2
				c3.1,1.2,6.5,1.7,9.8,1.5c3.8,0.3,7.6,0.2,11.4-0.4c3.4-1.2,6.8-2.3,10.4-3.1c3.3-0.1,6.6,0.4,9.7,1.5c3.1,1,6.3,1.6,9.5,1.5
				c1.8-0.1,3.5-0.5,5.2-1.1c1.6-0.9,3.4-1.5,5.2-2c1.5,0.1,2.9,0.6,4,1.6c1.7,1.1,3.7,1.7,5.7,1.9c3.9,0.2,7.4-2,11.3-1.7
				c4.5,0.3,4.5-6.7,0-7c-3.5-0.3-6.8,1.6-10.3,1.8c-1.5-0.1-3-0.7-4.2-1.7c-1.6-1.1-3.5-1.7-5.4-1.9c-4-0.3-7,2.4-10.8,3
				c-3.3,0.2-6.5-0.3-9.5-1.5c-3.5-1.2-7.2-1.6-10.9-1.4c-3.9,0.8-7.7,1.9-11.5,3.2c-3.8,0.5-7.7,0.5-11.6,0
				c-2.8-0.2-5.4-0.9-7.9-2.1c-5.1-2-13.7-2.5-14.7,4.7c-0.7,1.8,0.2,3.8,2,4.6c1.8,0.7,3.8-0.2,4.6-2
				C-151.3,180.6-151.2,180.4-151.2,180.2L-151.2,180.2z"/>
			<path class="st1" d="M-151.2,203.5c0,0,0-1.3,0-0.7c0-0.4,0.2,0,0,0c0.7-0.1,1.4-0.1,2.1,0c2,0.4,4,1,5.8,2
				c3.1,1.2,6.5,1.7,9.8,1.5c3.8,0.3,7.6,0.2,11.4-0.4c3.4-1.2,6.8-2.3,10.4-3.1c3.3-0.1,6.5,0.4,9.5,1.5c3.1,1,6.3,1.6,9.5,1.5
				c1.8-0.1,3.5-0.5,5.2-1.1c1.6-0.9,3.4-1.5,5.2-2c1.5,0.1,2.9,0.7,4,1.7c1.7,1.1,3.7,1.7,5.7,1.9c3.9,0.2,7.4-2,11.3-1.7
				c4.5,0.3,4.5-6.7,0-7c-3.5-0.3-6.8,1.6-10.3,1.8c-1.5-0.1-3-0.7-4.2-1.7c-1.6-1.1-3.5-1.7-5.4-1.9c-4-0.3-7,2.4-10.8,3
				c-3.3,0.2-6.5-0.3-9.5-1.5c-3.5-1.2-7.2-1.6-10.9-1.4c-3.9,0.8-7.7,1.9-11.5,3.2c-3.8,0.5-7.7,0.5-11.6,0
				c-2.8-0.2-5.4-0.9-7.9-2.1c-5.1-2-13.7-2.5-14.7,4.7c-0.5,1.9,0.6,3.8,2.5,4.3c0,0,0,0,0,0c1.9,0.5,3.8-0.6,4.3-2.5c0,0,0,0,0,0
				L-151.2,203.5z"/>
			<path class="st1" d="M-177.8,85.7h-1.7c-0.5,0-1,0.1-1.4,0.3c-0.9,0.3-1.5,1-1.9,1.9c-0.2,0.4-0.3,0.9-0.3,1.4c0,0.3,0,0.6,0,0.9
				c0.2,0.6,0.5,1.1,0.9,1.5l0.7,0.6c0.5,0.3,1.1,0.5,1.8,0.5h1.7c0.5,0,1-0.1,1.4-0.3c0.9-0.3,1.5-1,1.9-1.9
				c0.2-0.4,0.3-0.9,0.3-1.4c0-0.3,0-0.6,0-0.9c-0.2-0.6-0.5-1.1-0.9-1.5l-0.7-0.6C-176.5,85.8-177.1,85.7-177.8,85.7z"/>
			<path class="st1" d="M-174.4,109h-5c-0.9,0-1.8,0.4-2.5,1c-0.3,0.3-0.6,0.7-0.7,1.1c-0.2,0.4-0.3,0.9-0.3,1.4
				c0,0.9,0.4,1.8,1,2.5c0.7,0.6,1.6,1,2.5,1h5c0.9,0,1.8-0.4,2.5-1c0.3-0.3,0.6-0.7,0.7-1.1c0.2-0.4,0.3-0.9,0.3-1.4
				c0-0.9-0.4-1.8-1-2.5C-172.6,109.4-173.5,109-174.4,109z"/>
			<path class="st1" d="M-174.4,132.4h-5c-0.9,0-1.8,0.4-2.5,1c-0.3,0.3-0.6,0.7-0.7,1.1c-0.2,0.4-0.3,0.9-0.3,1.4
				c0,0.9,0.4,1.8,1,2.5c0.7,0.6,1.6,1,2.5,1h5c0.9,0,1.8-0.4,2.5-1c0.3-0.3,0.6-0.7,0.7-1.1c0.2-0.4,0.3-0.9,0.3-1.4
				c0-0.9-0.4-1.8-1-2.5C-172.6,132.8-173.5,132.4-174.4,132.4z"/>
			<path class="st1" d="M-175.4,155.7h-5c-0.9,0-1.8,0.4-2.5,1c-0.3,0.3-0.6,0.7-0.7,1.1c-0.2,0.4-0.3,0.9-0.3,1.4
				c0,0.9,0.4,1.8,1,2.5c0.7,0.6,1.6,1,2.5,1h5c0.9,0,1.8-0.4,2.5-1c0.3-0.3,0.6-0.7,0.7-1.1c0.2-0.4,0.3-0.9,0.3-1.4
				c0-0.9-0.4-1.8-1-2.5C-173.6,156.1-174.5,155.7-175.4,155.7z"/>
			<path class="st1" d="M-174.4,179.1h-5c-0.9,0-1.8,0.4-2.5,1c-0.3,0.3-0.6,0.7-0.7,1.1c-0.2,0.4-0.3,0.9-0.3,1.4
				c0,0.9,0.4,1.8,1,2.5c0.7,0.6,1.6,1,2.5,1h5c0.9,0,1.8-0.4,2.5-1c0.3-0.3,0.6-0.7,0.7-1.1c0.2-0.4,0.3-0.9,0.3-1.4
				c0-0.9-0.4-1.8-1-2.5C-172.6,179.5-173.5,179.1-174.4,179.1z"/>
		</g>
	</g>
</g>
<g id="Layer_2_5_">
	<g id="Layer_1-2_1_">
		<path class="st6" d="M199,119.1h16.8c2.5,0,4.5,1.8,4.5,4v15.1c0,2.2-2,4-4.5,4H199c-2.5,0-4.5-1.8-4.5-4v-15.1
			C194.5,120.9,196.5,119.1,199,119.1z"/>
		<g>
			<defs>
				<rect id="SVGID_1_" x="0" y="20" width="255.1" height="215.1"/>
			</defs>
			<clipPath id="SVGID_2_">
				<use xlink:href="#SVGID_1_"  style="overflow:visible;"/>
			</clipPath>
			<g class="st7">
				<path class="st8" d="M80.1,97.6c21.2-0.1,38.3-15.5,38.5-34.6c0-19.1-17.2-34.6-38.5-34.6c-21.3,0-38.5,15.5-38.5,34.6
					C41.8,82.1,58.9,97.5,80.1,97.6z M80.1,40.9c13.8,0,25.1,10.1,25.1,22.5S94,85.9,80.1,85.9S55.1,75.9,55.1,63.4
					C55.2,51.1,66.3,41.1,80.1,40.9z M127.1,107.3h-94c-17.5,0.1-31.7,12.8-31.8,28.5v92.1c0.1,3.3,3,5.9,6.7,6
					c3.7-0.1,6.6-2.7,6.7-6v-92.1c0-9.1,8.2-16.4,18.3-16.5H56l8.1,20.9l-10.3,49.4L81.5,213l27.3-22.9l-7.6-49.9l5.8-20.9h20.6
					c10.1,0,18.3,7.4,18.3,16.5v68.7c0,3.3,3,6,6.7,6s6.7-2.7,6.7-6v-68.7C159.2,119.9,144.8,107.1,127.1,107.3
					C127.1,107.3,127.1,107.3,127.1,107.3z M92.7,119.3l-4,13.7H74.8l-5.4-13.7H92.7z M81,196.5l-13-10.9l8.1-39.4h12.1l6.3,39
					L81,196.5z M184.4,76.7c17.1,0,30.9-12.4,30.9-27.7s-13.8-27.7-30.9-27.7c-17.1,0-30.9,12.4-30.9,27.7
					C153.5,64.3,167.4,76.7,184.4,76.7z M184.4,33.3c9.6,0,17.5,7,17.5,15.7c0,0,0,0,0,0c0,8.7-7.8,15.7-17.4,15.7
					c-9.6,0-17.5-7-17.5-15.7c0,0,0,0,0,0C167.2,40.4,174.9,33.5,184.4,33.3z M219.3,88.4h-59.1c-3.7,0-6.7,2.7-6.7,6
					c0,3.3,3,6,6.7,6h59.1c11.6,0,21,8.4,21,18.8c0,0,0,0.1,0,0.1v70.8c0,3.3,3,6,6.7,6s6.7-2.7,6.7-6v-70.8c0.1-17-15-30.8-33.9-31
					C219.7,88.4,219.5,88.4,219.3,88.4z"/>
			</g>
		</g>
	</g>
</g>
</svg>
