<svg xmlns="http://www.w3.org/2000/svg" viewBox="0 0 1920.63 40.55"><defs><style>.cls-1{fill:#030359;}.cls-2{fill:#999;}</style></defs><g id="Layer_2" data-name="Layer 2"><g id="그룹화_얇은버전"><rect class="cls-1" x="0.94" y="2.98" width="1919.69" height="36.44"/><rect class="cls-2" x="748.55" y="3.74" width="2.09" height="25.34"/><rect class="cls-2" x="774.42" y="12.22" width="2.09" height="27.42"/><rect class="cls-2" x="828.22" y="12.22" width="2.09" height="27.42"/><rect class="cls-2" x="883.17" y="12.22" width="2.09" height="27.42"/><rect class="cls-2" x="855.41" y="1.23" width="2.09" height="27.42"/><rect class="cls-2" x="939.86" y="12.22" width="2.09" height="27.42"/><rect class="cls-2" x="912.1" y="1.81" width="2.09" height="27.42"/><rect class="cls-2" x="968.21" y="2.39" width="2.09" height="27.42"/><rect class="cls-2" x="801.03" y="1.23" width="2.09" height="27.42"/><rect class="cls-2" x="722.35" y="12.22" width="2.09" height="27.42"/><rect class="cls-2" x="671.37" y="11.65" width="2.09" height="27.42"/><rect class="cls-2" x="408.46" y="11.65" width="2.09" height="27.42"/><rect class="cls-2" x="460.33" y="11.65" width="2.09" height="27.42"/><rect class="cls-2" x="513.39" y="11.65" width="2.09" height="27.42"/><rect class="cls-2" x="565.85" y="11.65" width="2.09" height="27.42"/><rect class="cls-2" x="619.2" y="11.65" width="2.09" height="27.42"/><rect class="cls-2" x="382.79" y="3.62" width="2.09" height="25.34"/><rect class="cls-2" x="433.8" y="3.62" width="2.09" height="25.34"/><rect class="cls-2" x="487.45" y="3.62" width="2.09" height="25.34"/><rect class="cls-2" x="539.92" y="3.62" width="2.09" height="25.34"/><rect class="cls-2" x="592.67" y="3.62" width="2.09" height="25.34"/><rect class="cls-2" x="645.14" y="3.62" width="2.09" height="25.34"/><rect class="cls-2" x="697" y="3.62" width="2.09" height="25.34"/><polygon class="cls-2" points="402.47 30.58 367.84 30.58 367.84 28.48 400.38 28.48 400.38 20.89 402.47 20.89 402.47 30.58"/><polygon class="cls-2" points="453.48 30.58 416.21 30.58 416.21 20.89 418.31 20.89 418.31 28.48 451.39 28.48 451.39 20.89 453.48 20.89 453.48 30.58"/><polygon class="cls-2" points="506.83 30.58 468.97 30.58 468.97 20.89 471.06 20.89 471.06 28.48 504.74 28.48 504.74 20.89 506.83 20.89 506.83 30.58"/><polygon class="cls-2" points="559.89 30.58 522.92 30.58 522.92 20.89 525.02 20.89 525.02 28.48 557.8 28.48 557.8 20.89 559.89 20.89 559.89 30.58"/><polygon class="cls-2" points="612.95 30.58 575.09 30.58 575.09 20.89 577.18 20.89 577.18 28.48 610.86 28.48 610.86 20.89 612.95 20.89 612.95 30.58"/><polygon class="cls-2" points="666 30.58 627.85 30.58 627.85 20.89 629.94 20.89 629.94 28.48 663.91 28.48 663.91 20.89 666 20.89 666 30.58"/><polygon class="cls-2" points="716.08 30.58 680.31 30.58 680.31 20.89 682.4 20.89 682.4 28.48 713.99 28.48 713.99 20.89 716.08 20.89 716.08 30.58"/><polygon class="cls-2" points="426.95 20.89 424.86 20.89 424.86 12.69 392.97 12.69 392.97 20.89 390.88 20.89 390.88 10.6 426.95 10.6 426.95 20.89"/><polygon class="cls-2" points="480.6 20.89 478.51 20.89 478.51 12.69 444.24 12.69 444.24 20.89 442.15 20.89 442.15 10.6 480.6 10.6 480.6 20.89"/><polygon class="cls-2" points="533.36 20.89 531.27 20.89 531.27 12.69 497.89 12.69 497.89 20.89 495.8 20.89 495.8 10.6 533.36 10.6 533.36 20.89"/><polygon class="cls-2" points="585.82 20.89 583.73 20.89 583.73 12.69 550.35 12.69 550.35 20.89 548.26 20.89 548.26 10.6 585.82 10.6 585.82 20.89"/><polygon class="cls-2" points="639.18 20.89 637.09 20.89 637.09 12.69 604.9 12.69 604.9 20.89 602.81 20.89 602.81 10.6 639.18 10.6 639.18 20.89"/><polygon class="cls-2" points="690.75 20.89 688.65 20.89 688.65 12.69 656.47 12.69 656.47 20.89 654.38 20.89 654.38 10.6 690.75 10.6 690.75 20.89"/><polygon class="cls-2" points="742.61 20.89 740.52 20.89 740.52 12.69 708.03 12.69 708.03 20.89 705.94 20.89 705.94 10.6 742.61 10.6 742.61 20.89"/><rect class="cls-2" y="38.15" width="1920.63" height="2.39"/><rect class="cls-2" x="359.15" y="11.65" width="2.09" height="27.42"/><rect class="cls-2" x="307.58" y="11.65" width="2.09" height="27.42"/><rect class="cls-2" x="44.68" y="11.65" width="2.09" height="27.42"/><rect class="cls-2" x="96.54" y="11.65" width="2.09" height="27.42"/><rect class="cls-2" x="149.6" y="11.65" width="2.09" height="27.42"/><rect class="cls-2" x="202.06" y="11.65" width="2.09" height="27.42"/><rect class="cls-2" x="255.42" y="11.65" width="2.09" height="27.42"/><rect class="cls-2" width="1920.63" height="3.15"/><rect class="cls-2" x="17.85" y="3.62" width="2.09" height="25.34"/><rect class="cls-2" x="70.01" y="3.62" width="2.09" height="25.34"/><rect class="cls-2" x="123.67" y="3.62" width="2.09" height="25.34"/><rect class="cls-2" x="176.13" y="3.62" width="2.09" height="25.34"/><rect class="cls-2" x="228.89" y="3.62" width="2.09" height="25.34"/><rect class="cls-2" x="281.35" y="3.62" width="2.09" height="25.34"/><rect class="cls-2" x="333.21" y="3.62" width="2.09" height="25.34"/><polygon class="cls-2" points="37.53 30.58 2.89 30.58 2.89 28.48 35.44 28.48 35.44 20.89 37.53 20.89 37.53 30.58"/><polygon class="cls-2" points="89.69 30.58 52.43 30.58 52.43 20.89 54.52 20.89 54.52 28.48 87.6 28.48 87.6 20.89 89.69 20.89 89.69 30.58"/><polygon class="cls-2" points="143.05 30.58 105.19 30.58 105.19 20.89 107.28 20.89 107.28 28.48 140.96 28.48 140.96 20.89 143.05 20.89 143.05 30.58"/><polygon class="cls-2" points="196.1 30.58 159.14 30.58 159.14 20.89 161.23 20.89 161.23 28.48 194.01 28.48 194.01 20.89 196.1 20.89 196.1 30.58"/><polygon class="cls-2" points="249.16 30.58 211.3 30.58 211.3 20.89 213.39 20.89 213.39 28.48 247.07 28.48 247.07 20.89 249.16 20.89 249.16 30.58"/><polygon class="cls-2" points="302.22 30.58 264.06 30.58 264.06 20.89 266.15 20.89 266.15 28.48 300.13 28.48 300.13 20.89 302.22 20.89 302.22 30.58"/><polygon class="cls-2" points="352.3 30.58 316.52 30.58 316.52 20.89 318.61 20.89 318.61 28.48 350.2 28.48 350.2 20.89 352.3 20.89 352.3 30.58"/><polygon class="cls-2" points="379.21 30.58 367.49 30.58 367.49 20.89 369.58 20.89 369.58 28.48 379.21 28.48 379.21 30.58"/><polygon class="cls-2" points="11.3 19.73 9.21 19.73 9.21 12.73 2.89 12.73 2.89 10.64 11.3 10.64 11.3 19.73"/><polygon class="cls-2" points="63.16 20.89 61.07 20.89 61.07 12.69 29.18 12.69 29.18 20.89 27.09 20.89 27.09 10.6 63.16 10.6 63.16 20.89"/><polygon class="cls-2" points="116.82 20.89 114.73 20.89 114.73 12.69 80.45 12.69 80.45 20.89 78.36 20.89 78.36 10.6 116.82 10.6 116.82 20.89"/><polygon class="cls-2" points="169.58 20.89 167.49 20.89 167.49 12.69 134.1 12.69 134.1 20.89 132.01 20.89 132.01 10.6 169.58 10.6 169.58 20.89"/><polygon class="cls-2" points="222.04 20.89 219.95 20.89 219.95 12.69 186.57 12.69 186.57 20.89 184.47 20.89 184.47 10.6 222.04 10.6 222.04 20.89"/><polygon class="cls-2" points="275.39 20.89 273.3 20.89 273.3 12.69 241.11 12.69 241.11 20.89 239.02 20.89 239.02 10.6 275.39 10.6 275.39 20.89"/><polygon class="cls-2" points="326.96 20.89 324.87 20.89 324.87 12.69 292.68 12.69 292.68 20.89 290.59 20.89 290.59 10.6 326.96 10.6 326.96 20.89"/><polygon class="cls-2" points="378.82 20.89 376.73 20.89 376.73 12.69 344.25 12.69 344.25 20.89 342.16 20.89 342.16 10.6 378.82 10.6 378.82 20.89"/><polygon class="cls-2" points="767.61 30.43 730.35 30.43 730.35 20.74 732.44 20.74 732.44 28.34 765.52 28.34 765.52 20.74 767.61 20.74 767.61 30.43"/><polygon class="cls-2" points="820.83 30.43 783.57 30.43 783.57 20.74 785.66 20.74 785.66 28.34 818.74 28.34 818.74 20.74 820.83 20.74 820.83 30.43"/><polygon class="cls-2" points="875.21 31.01 837.95 31.01 837.95 21.32 840.04 21.32 840.04 28.92 873.12 28.92 873.12 21.32 875.21 21.32 875.21 31.01"/><polygon class="cls-2" points="931.32 31.01 894.06 31.01 894.06 21.32 896.15 21.32 896.15 28.92 929.23 28.92 929.23 21.32 931.32 21.32 931.32 31.01"/><polygon class="cls-2" points="793.92 21.64 791.83 21.64 791.83 13.44 759.34 13.44 759.34 21.64 757.25 21.64 757.25 11.35 793.92 11.35 793.92 21.64"/><polygon class="cls-2" points="847.14 21.64 845.05 21.64 845.05 13.44 812.56 13.44 812.56 21.64 810.47 21.64 810.47 11.35 847.14 11.35 847.14 21.64"/><polygon class="cls-2" points="902.67 21.06 900.58 21.06 900.58 12.86 868.1 12.86 868.1 21.06 866.01 21.06 866.01 10.77 902.67 10.77 902.67 21.06"/><polygon class="cls-2" points="987.01 31.16 949.75 31.16 949.75 21.48 951.84 21.48 951.84 29.07 984.92 29.07 984.92 21.48 987.01 21.48 987.01 31.16"/><polygon class="cls-2" points="959.37 21.21 957.27 21.21 957.27 13.02 924.79 13.02 924.79 21.21 922.7 21.21 922.7 10.93 959.37 10.93 959.37 21.21"/><rect class="cls-2" x="1072.55" y="3.74" width="2.09" height="25.34"/><rect class="cls-2" x="1098.42" y="12.22" width="2.09" height="27.42"/><rect class="cls-2" x="1152.22" y="12.22" width="2.09" height="27.42"/><rect class="cls-2" x="1207.17" y="12.22" width="2.09" height="27.42"/><rect class="cls-2" x="1179.41" y="1.23" width="2.09" height="27.42"/><rect class="cls-2" x="1263.86" y="12.22" width="2.09" height="27.42"/><rect class="cls-2" x="1236.1" y="1.81" width="2.09" height="27.42"/><rect class="cls-2" x="1292.21" y="2.39" width="2.09" height="27.42"/><rect class="cls-2" x="1125.03" y="1.23" width="2.09" height="27.42"/><rect class="cls-2" x="1046.35" y="12.22" width="2.09" height="27.42"/><rect class="cls-2" x="995.37" y="11.65" width="2.09" height="27.42"/><rect class="cls-2" x="1021" y="3.62" width="2.09" height="25.34"/><polygon class="cls-2" points="1040.08 30.58 1004.31 30.58 1004.31 20.89 1006.4 20.89 1006.4 28.48 1037.99 28.48 1037.99 20.89 1040.08 20.89 1040.08 30.58"/><polygon class="cls-2" points="1014.75 20.89 1012.65 20.89 1012.65 12.69 980.47 12.69 980.47 20.89 978.38 20.89 978.38 10.6 1014.75 10.6 1014.75 20.89"/><polygon class="cls-2" points="1066.61 20.89 1064.52 20.89 1064.52 12.69 1032.03 12.69 1032.03 20.89 1029.94 20.89 1029.94 10.6 1066.61 10.6 1066.61 20.89"/><polygon class="cls-2" points="1091.61 30.43 1054.35 30.43 1054.35 20.74 1056.44 20.74 1056.44 28.34 1089.52 28.34 1089.52 20.74 1091.61 20.74 1091.61 30.43"/><polygon class="cls-2" points="1144.83 30.43 1107.57 30.43 1107.57 20.74 1109.66 20.74 1109.66 28.34 1142.74 28.34 1142.74 20.74 1144.83 20.74 1144.83 30.43"/><polygon class="cls-2" points="1199.21 31.01 1161.95 31.01 1161.95 21.32 1164.04 21.32 1164.04 28.92 1197.12 28.92 1197.12 21.32 1199.21 21.32 1199.21 31.01"/><polygon class="cls-2" points="1255.32 31.01 1218.06 31.01 1218.06 21.32 1220.15 21.32 1220.15 28.92 1253.23 28.92 1253.23 21.32 1255.32 21.32 1255.32 31.01"/><polygon class="cls-2" points="1117.92 21.64 1115.83 21.64 1115.83 13.44 1083.34 13.44 1083.34 21.64 1081.25 21.64 1081.25 11.35 1117.92 11.35 1117.92 21.64"/><polygon class="cls-2" points="1171.14 21.64 1169.05 21.64 1169.05 13.44 1136.56 13.44 1136.56 21.64 1134.47 21.64 1134.47 11.35 1171.14 11.35 1171.14 21.64"/><polygon class="cls-2" points="1226.67 21.06 1224.58 21.06 1224.58 12.86 1192.1 12.86 1192.1 21.06 1190.01 21.06 1190.01 10.77 1226.67 10.77 1226.67 21.06"/><polygon class="cls-2" points="1311.02 31.16 1273.75 31.16 1273.75 21.48 1275.84 21.48 1275.84 29.07 1308.92 29.07 1308.92 21.48 1311.02 21.48 1311.02 31.16"/><polygon class="cls-2" points="1283.37 21.21 1281.28 21.21 1281.28 13.02 1248.79 13.02 1248.79 21.21 1246.7 21.21 1246.7 10.93 1283.37 10.93 1283.37 21.21"/><rect class="cls-2" x="1344.55" y="3.74" width="2.09" height="25.34"/><rect class="cls-2" x="1370.42" y="12.22" width="2.09" height="27.42"/><rect class="cls-2" x="1424.22" y="12.22" width="2.09" height="27.42"/><rect class="cls-2" x="1479.17" y="12.22" width="2.09" height="27.42"/><rect class="cls-2" x="1451.41" y="1.23" width="2.09" height="27.42"/><rect class="cls-2" x="1535.86" y="12.22" width="2.09" height="27.42"/><rect class="cls-2" x="1508.1" y="1.81" width="2.09" height="27.42"/><rect class="cls-2" x="1564.21" y="2.39" width="2.09" height="27.42"/><rect class="cls-2" x="1397.03" y="1.23" width="2.09" height="27.42"/><rect class="cls-2" x="1318.35" y="12.22" width="2.09" height="27.42"/><polygon class="cls-2" points="1338.61 20.89 1336.52 20.89 1336.52 12.69 1304.03 12.69 1304.03 20.89 1301.94 20.89 1301.94 10.6 1338.61 10.6 1338.61 20.89"/><polygon class="cls-2" points="1363.61 30.43 1326.35 30.43 1326.35 20.74 1328.44 20.74 1328.44 28.34 1361.52 28.34 1361.52 20.74 1363.61 20.74 1363.61 30.43"/><polygon class="cls-2" points="1416.83 30.43 1379.57 30.43 1379.57 20.74 1381.66 20.74 1381.66 28.34 1414.74 28.34 1414.74 20.74 1416.83 20.74 1416.83 30.43"/><polygon class="cls-2" points="1471.21 31.01 1433.95 31.01 1433.95 21.32 1436.04 21.32 1436.04 28.92 1469.12 28.92 1469.12 21.32 1471.21 21.32 1471.21 31.01"/><polygon class="cls-2" points="1527.32 31.01 1490.06 31.01 1490.06 21.32 1492.15 21.32 1492.15 28.92 1525.23 28.92 1525.23 21.32 1527.32 21.32 1527.32 31.01"/><polygon class="cls-2" points="1389.92 21.64 1387.83 21.64 1387.83 13.44 1355.34 13.44 1355.34 21.64 1353.25 21.64 1353.25 11.35 1389.92 11.35 1389.92 21.64"/><polygon class="cls-2" points="1443.14 21.64 1441.05 21.64 1441.05 13.44 1408.56 13.44 1408.56 21.64 1406.47 21.64 1406.47 11.35 1443.14 11.35 1443.14 21.64"/><polygon class="cls-2" points="1498.67 21.06 1496.58 21.06 1496.58 12.86 1464.1 12.86 1464.1 21.06 1462.01 21.06 1462.01 10.77 1498.67 10.77 1498.67 21.06"/><polygon class="cls-2" points="1583.02 31.16 1545.75 31.16 1545.75 21.48 1547.84 21.48 1547.84 29.07 1580.92 29.07 1580.92 21.48 1583.02 21.48 1583.02 31.16"/><polygon class="cls-2" points="1555.37 21.21 1553.28 21.21 1553.28 13.02 1520.79 13.02 1520.79 21.21 1518.7 21.21 1518.7 10.93 1555.37 10.93 1555.37 21.21"/><rect class="cls-2" x="1591.17" y="12.22" width="2.09" height="27.42"/><rect class="cls-2" x="1647.86" y="12.22" width="2.09" height="27.42"/><rect class="cls-2" x="1620.1" y="1.81" width="2.09" height="27.42"/><rect class="cls-2" x="1676.21" y="2.39" width="2.09" height="27.42"/><polygon class="cls-2" points="1639.32 31.01 1602.06 31.01 1602.06 21.32 1604.15 21.32 1604.15 28.92 1637.23 28.92 1637.23 21.32 1639.32 21.32 1639.32 31.01"/><polygon class="cls-2" points="1610.67 21.06 1608.58 21.06 1608.58 12.86 1576.1 12.86 1576.1 21.06 1574.01 21.06 1574.01 10.77 1610.67 10.77 1610.67 21.06"/><polygon class="cls-2" points="1695.02 31.16 1657.75 31.16 1657.75 21.48 1659.84 21.48 1659.84 29.07 1692.92 29.07 1692.92 21.48 1695.02 21.48 1695.02 31.16"/><polygon class="cls-2" points="1667.37 21.21 1665.28 21.21 1665.28 13.02 1632.79 13.02 1632.79 21.21 1630.7 21.21 1630.7 10.93 1667.37 10.93 1667.37 21.21"/><rect class="cls-2" x="1728.55" y="3.74" width="2.09" height="25.34"/><rect class="cls-2" x="1754.42" y="12.22" width="2.09" height="27.42"/><rect class="cls-2" x="1808.22" y="12.22" width="2.09" height="27.42"/><rect class="cls-2" x="1863.17" y="12.22" width="2.09" height="27.42"/><rect class="cls-2" x="1835.41" y="1.23" width="2.09" height="27.42"/><rect class="cls-2" x="1892.1" y="1.81" width="2.09" height="27.42"/><rect class="cls-2" x="1781.03" y="1.23" width="2.09" height="27.42"/><rect class="cls-2" x="1702.35" y="12.22" width="2.09" height="27.42"/><polygon class="cls-2" points="1722.61 20.89 1720.52 20.89 1720.52 12.69 1688.03 12.69 1688.03 20.89 1685.94 20.89 1685.94 10.6 1722.61 10.6 1722.61 20.89"/><polygon class="cls-2" points="1747.61 30.43 1710.35 30.43 1710.35 20.74 1712.44 20.74 1712.44 28.34 1745.52 28.34 1745.52 20.74 1747.61 20.74 1747.61 30.43"/><polygon class="cls-2" points="1800.83 30.43 1763.57 30.43 1763.57 20.74 1765.66 20.74 1765.66 28.34 1798.74 28.34 1798.74 20.74 1800.83 20.74 1800.83 30.43"/><polygon class="cls-2" points="1855.21 31.01 1817.95 31.01 1817.95 21.32 1820.04 21.32 1820.04 28.92 1853.12 28.92 1853.12 21.32 1855.21 21.32 1855.21 31.01"/><polygon class="cls-2" points="1911.32 31.01 1874.06 31.01 1874.06 21.32 1876.15 21.32 1876.15 28.92 1909.23 28.92 1909.23 21.32 1911.32 21.32 1911.32 31.01"/><polygon class="cls-2" points="1773.92 21.64 1771.83 21.64 1771.83 13.44 1739.34 13.44 1739.34 21.64 1737.25 21.64 1737.25 11.35 1773.92 11.35 1773.92 21.64"/><polygon class="cls-2" points="1827.14 21.64 1825.05 21.64 1825.05 13.44 1792.56 13.44 1792.56 21.64 1790.47 21.64 1790.47 11.35 1827.14 11.35 1827.14 21.64"/><polygon class="cls-2" points="1882.67 21.06 1880.58 21.06 1880.58 12.86 1848.1 12.86 1848.1 21.06 1846.01 21.06 1846.01 10.77 1882.67 10.77 1882.67 21.06"/><polyline class="cls-2" points="1920.63 13.02 1904.79 13.02 1904.79 21.21 1902.7 21.21 1902.7 10.93 1920.63 10.93"/></g></g></svg>